<mxfile host="app.diagrams.net" modified="2024-12-20T10:08:20.868Z" agent="Mozilla/5.0 (Windows NT 10.0; Win64; x64) AppleWebKit/537.36 (KHTML, like Gecko) Chrome/131.0.0.0 Safari/537.36 Edg/131.0.0.0" version="24.6.4" etag="dtM0b-8wbT9SRM7_aPdR" type="github">
  <diagram name="Pagina-1" id="CZbmSyiHjOe8Dno2XOO7">
    <mxGraphModel>
      <root>
        <mxCell id="0" />
        <mxCell id="1" parent="0" />
      </root>
    </mxGraphModel>
  </diagram>
</mxfile>
